<svg width="33" height="40" viewBox="0 0 33 40" fill="none" xmlns="http://www.w3.org/2000/svg">
<path opacity="0.7" d="M33 2V32C33 32.3978 32.842 32.7794 32.5607 33.0607C32.2794 33.342 31.8978 33.5 31.5 33.5H6C5.20435 33.5 4.44129 33.8161 3.87868 34.3787C3.31607 34.9413 3 35.7043 3 36.5H28.5C28.8978 36.5 29.2794 36.658 29.5607 36.9393C29.842 37.2206 30 37.6022 30 38C30 38.3978 29.842 38.7794 29.5607 39.0607C29.2794 39.342 28.8978 39.5 28.5 39.5H1.5C1.10218 39.5 0.720645 39.342 0.43934 39.0607C0.158036 38.7794 0 38.3978 0 38V6.5C0 4.9087 0.632141 3.38258 1.75736 2.25736C2.88258 1.13214 4.4087 0.5 6 0.5H31.5C31.8978 0.5 32.2794 0.658035 32.5607 0.93934C32.842 1.22064 33 1.60218 33 2Z" fill="black"/>
</svg>
