<svg width="186" height="49" viewBox="0 0 186 49" fill="none" xmlns="http://www.w3.org/2000/svg">
<path opacity="0.7" d="M31.68 42.28V48H0.675V3.15H31.03V8.805H7.825V22.715H29.21V28.37H7.825V42.28H31.68ZM65.4546 0.224999V48H58.3046V42.54L55.7046 46.31C53.7546 47.87 50.1796 48.91 46.6696 48.91C36.7896 48.91 31.1346 41.435 31.1346 31.295C31.1346 18.685 38.9346 12.575 47.8396 12.575C50.6996 12.575 54.2746 13.355 56.0296 14.72L58.3046 18.165V0.224999H65.4546ZM48.2946 43.71C53.6896 43.71 58.3046 40.33 58.3046 31.1V29.28C58.3046 20.895 53.2346 17.775 48.6196 17.775C42.9646 17.775 38.6746 22.13 38.6746 30.71C38.6746 38.185 42.1196 43.71 48.2946 43.71ZM100.484 13.485V48H93.3985V42.085L90.9935 46.375C88.2635 48.325 85.7285 48.91 82.2835 48.91C75.1335 48.91 70.9735 44.88 70.1935 40.135C69.9335 38.38 69.8685 36.82 69.8685 34.025V13.485H76.9535V32.595C76.9535 33.7 77.0185 35.585 77.2135 37.34C77.7335 41.11 80.2035 43.58 84.6235 43.58C89.6285 43.58 93.3985 39.745 93.3985 29.735V13.485H100.484ZM116.637 30.385H102.987V29.02H116.637V30.385ZM141.104 48L140.649 39.615L139.154 43.06C136.749 46.895 132.719 48.91 128.104 48.91C121.604 48.91 117.574 45.855 117.574 39.745C117.574 31.75 127.714 28.305 138.374 28.305H140.584V26.55C140.584 24.925 140.584 23.625 140.454 22.13C139.999 16.995 136.619 14.265 131.029 14.265C126.219 14.265 121.084 16.8 120.304 23.17H118.874C119.264 17.45 124.269 12.9 131.029 12.9C137.724 12.9 141.429 16.215 141.884 21.935C142.014 23.69 142.014 24.6 142.014 26.42V36.95C142.014 40.85 142.209 43.515 142.599 48H141.104ZM128.299 47.545C135.644 47.545 140.584 41.175 140.584 34.415V29.735C130.574 29.085 119.134 31.88 119.134 39.68C119.134 44.425 122.059 47.545 128.299 47.545ZM157.558 12.9C158.078 12.9 158.598 12.9 159.053 12.965V14.265C152.813 13.745 148.458 17.97 148.458 29.28V48H147.028V13.81H148.458V21.155L149.823 17.255C151.643 14.525 154.373 12.9 157.558 12.9ZM185.437 0.224999V48H184.007V40.2L182.187 44.1C179.132 47.74 176.077 48.91 171.397 48.91C162.492 48.91 156.642 41.565 156.642 31.165C156.642 19.075 163.922 12.9 172.177 12.9C176.532 12.9 179.327 14.2 182.122 17.32L184.007 21.61V0.224999H185.437ZM171.527 47.545C178.287 47.545 184.007 43.775 184.007 32.53V28.695C184.007 17.515 177.507 14.265 172.177 14.265C163.987 14.265 158.202 21.09 158.202 30.905C158.202 39.875 162.882 47.545 171.527 47.545Z" fill="black"/>
</svg>
