<svg width="169" height="162" viewBox="0 0 169 162" fill="none" xmlns="http://www.w3.org/2000/svg">
<path opacity="0.7" d="M164.081 26.2399L86.5427 0.33242C85.2163 -0.110807 83.7822 -0.110807 82.4558 0.33242L4.91804 26.2399C3.63144 26.6698 2.51241 27.4947 1.71947 28.5975C0.926536 29.7004 0.4999 31.0254 0.5 32.3849V97.1536C0.5 98.8714 1.18076 100.519 2.39252 101.733C3.60429 102.948 5.24779 103.63 6.96148 103.63C8.67517 103.63 10.3187 102.948 11.5304 101.733C12.7422 100.519 13.423 98.8714 13.423 97.1536V41.3715L40.5531 50.4311C33.345 62.104 31.0528 76.1672 34.18 89.5328C37.3071 102.898 45.5978 114.474 57.2318 121.717C42.6935 127.433 30.1259 137.772 20.9344 151.908C20.4564 152.62 20.1244 153.42 19.9576 154.262C19.7909 155.104 19.7928 155.971 19.9631 156.812C20.1335 157.653 20.469 158.452 20.9501 159.162C21.4312 159.872 22.0482 160.479 22.7655 160.948C23.4827 161.417 24.2858 161.738 25.128 161.893C25.9702 162.048 26.8348 162.034 27.6715 161.851C28.5081 161.669 29.3002 161.321 30.0017 160.829C30.7031 160.336 31.2999 159.709 31.7574 158.983C43.9292 140.265 63.1522 129.538 84.4993 129.538C105.846 129.538 125.069 140.265 137.241 158.983C138.189 160.395 139.653 161.377 141.317 161.715C142.98 162.054 144.71 161.722 146.132 160.793C147.554 159.863 148.554 158.41 148.915 156.747C149.277 155.085 148.971 153.346 148.064 151.908C138.873 137.772 126.257 127.433 111.767 121.717C123.39 114.474 131.672 102.906 134.799 89.5504C137.926 76.1946 135.641 62.1411 128.445 50.4715L164.081 38.5703C165.367 38.1406 166.487 37.3159 167.28 36.213C168.073 35.1101 168.5 33.785 168.5 32.4253C168.5 31.0657 168.073 29.7406 167.28 28.6377C166.487 27.5348 165.367 26.7101 164.081 26.2804V26.2399ZM123.268 77.723C123.27 83.8668 121.818 89.9234 119.033 95.396C116.247 100.869 112.207 105.601 107.243 109.205C102.279 112.81 96.5341 115.183 90.4782 116.13C84.4224 117.078 78.2287 116.573 72.4054 114.656C66.5821 112.74 61.2951 109.466 56.9781 105.105C52.6612 100.744 49.4374 95.4185 47.5712 89.5665C45.705 83.7144 45.2496 77.5022 46.2423 71.4396C47.2351 65.3769 49.6477 59.6366 53.2822 54.6896L82.4558 64.4049C83.7822 64.8481 85.2163 64.8481 86.5427 64.4049L115.716 54.6896C120.625 61.3608 123.272 69.4334 123.268 77.723Z" fill="black"/>
</svg>
