<svg width="162" height="162" viewBox="0 0 162 162" fill="none" xmlns="http://www.w3.org/2000/svg">
<path opacity="0.7" d="M119.368 3.97364e-08C125.893 -0.000363406 132.171 2.49246 136.918 6.96842C141.665 11.4444 144.522 17.5651 144.905 24.0783L144.947 25.5789V110.842H151.342C156.859 110.842 161.403 115.037 161.949 120.409L162 121.5V136.421C162 142.945 159.508 149.223 155.032 153.97C150.556 158.717 144.435 161.575 137.922 161.957L136.421 162H51.1579C44.6335 162 38.3555 159.508 33.6085 155.032C28.8615 150.556 26.0043 144.435 25.6216 137.922L25.5789 136.421V51.1579H10.6579C8.01936 51.1591 5.47417 50.1815 3.51484 48.4144C1.55551 46.6472 0.321344 44.216 0.0511583 41.5914L3.97364e-08 40.5V25.5789C-0.000363406 19.0545 2.49246 12.7766 6.96842 8.02956C11.4444 3.28257 17.5651 0.425399 24.0783 0.0426326L25.5789 3.97364e-08H119.368ZM119.368 17.0526H42.6316V136.421C42.6316 138.682 43.5299 140.851 45.1289 142.45C46.7279 144.049 48.8966 144.947 51.1579 144.947C53.4192 144.947 55.5879 144.049 57.1869 142.45C58.7859 140.851 59.6842 138.682 59.6842 136.421V121.5C59.6842 115.617 64.4589 110.842 70.3421 110.842H127.895V25.5789C127.895 23.3176 126.996 21.1489 125.397 19.5499C123.798 17.9509 121.63 17.0526 119.368 17.0526ZM144.947 127.895H76.7368V136.421C76.7368 139.405 76.2253 142.279 75.2874 144.947H136.421C138.682 144.947 140.851 144.049 142.45 142.45C144.049 140.851 144.947 138.682 144.947 136.421V127.895ZM85.2632 76.7368C87.5245 76.7368 89.6932 77.6352 91.2922 79.2341C92.8912 80.8331 93.7895 83.0018 93.7895 85.2632C93.7895 87.5245 92.8912 89.6932 91.2922 91.2922C89.6932 92.8912 87.5245 93.7895 85.2632 93.7895H68.2105C65.9492 93.7895 63.7805 92.8912 62.1815 91.2922C60.5825 89.6932 59.6842 87.5245 59.6842 85.2632C59.6842 83.0018 60.5825 80.8331 62.1815 79.2341C63.7805 77.6352 65.9492 76.7368 68.2105 76.7368H85.2632ZM102.316 42.6316C104.577 42.6316 106.746 43.5299 108.345 45.1289C109.944 46.7279 110.842 48.8966 110.842 51.1579C110.842 53.4192 109.944 55.5879 108.345 57.1869C106.746 58.7859 104.577 59.6842 102.316 59.6842H68.2105C65.9492 59.6842 63.7805 58.7859 62.1815 57.1869C60.5825 55.5879 59.6842 53.4192 59.6842 51.1579C59.6842 48.8966 60.5825 46.7279 62.1815 45.1289C63.7805 43.5299 65.9492 42.6316 68.2105 42.6316H102.316ZM25.5789 17.0526C23.4906 17.0529 21.4749 17.8196 19.9143 19.2074C18.3537 20.5951 17.3567 22.5073 17.1123 24.5814L17.0526 25.5789V34.1053H25.5789V17.0526Z" fill="black"/>
</svg>
